<svg height="512pt" viewBox="-27 0 512 512" width="512pt" xmlns="http://www.w3.org/2000/svg"><path d="m81.171875 17.691406h-54.109375c-2.957031 0-4.953125 3.023438-3.789062 5.742188l9.355468 21.828125c.429688 1.003906.441406 2.136719.035156 3.152343l-9.589843 23.984376c-1.085938 2.707031.910156 5.652343 3.824219 5.652343h54.273437zm0 0" fill="#ffe046"/><path d="m68.683594 17.691406v39.542969c0 4.601563-3.726563 8.328125-8.324219 8.328125h-34.550781l-2.734375 6.835938c-1.085938 2.707031.910156 5.652343 3.824219 5.652343h54.273437v-60.359375zm0 0" fill="#ffd508"/><path d="m197.722656 30.179688-21.539062-16.882813c-10.992188-8.617187-24.550782-13.296875-38.519532-13.296875h-42.964843c-7.472657 0-13.527344 6.058594-13.527344 13.527344v64.519531h116.550781zm0 0" fill="#ffe046"/><path d="m182.113281 17.945312v37.207032c0 5.75-4.660156 10.410156-10.40625 10.410156h-90.535156v12.488281h116.550781v-47.871093zm0 0" fill="#ffd508"/><path d="m376.714844 17.691406h54.109375c2.957031 0 4.953125 3.023438 3.785156 5.742188l-9.351563 21.828125c-.433593 1.003906-.445312 2.136719-.039062 3.152343l9.59375 23.984376c1.082031 2.707031-.910156 5.652343-3.828125 5.652343h-54.269531zm0 0" fill="#ffe046"/><path d="m430.824219 17.691406h-8.320313l-9.09375 21.214844c-2.171875 5.074219-2.242187 10.800781-.191406 15.925781l4.289062 10.726563h-40.792968v12.488281h54.273437c2.914063 0 4.90625-2.941406 3.824219-5.648437l-9.59375-23.984376c-.40625-1.015624-.390625-2.148437.039062-3.15625l9.355469-21.824218c1.164063-2.71875-.832031-5.742188-3.789062-5.742188zm0 0" fill="#ffd508"/><path d="m260.164062 30.179688 21.539063-16.882813c10.992187-8.617187 24.550781-13.296875 38.515625-13.296875h42.96875c7.472656 0 13.527344 6.058594 13.527344 13.527344v64.519531h-116.550782zm0 0" fill="#ffe046"/><path d="m363.1875 0v55.152344c0 5.75-4.660156 10.410156-10.40625 10.410156h-92.617188v12.488281h116.550782v-64.523437c0-7.46875-6.058594-13.527344-13.527344-13.527344zm0 0" fill="#ffd508"/><path d="m430.933594 512h-403.980469c-5.691406 0-10.304687-4.613281-10.304687-10.300781v-340.398438h424.585937v340.398438c0 5.6875-4.613281 10.300781-10.300781 10.300781zm0 0" fill="#82cd64"/><path d="m16.648438 161.300781v22.894531h390.246093c5.746094 0 10.40625 4.660157 10.40625 10.40625v317.398438h13.632813c5.6875 0 10.300781-4.613281 10.300781-10.300781v-340.398438zm0 0" fill="#5db33a"/><path d="m187.316406 161.300781h83.253906v350.699219h-83.253906zm0 0" fill="#ffe046"/><path d="m187.316406 161.300781h83.253906v22.894531h-83.253906zm0 0" fill="#ffd508"/><path d="m447.585938 161.300781h-437.285157c-5.6875 0-10.300781-4.613281-10.300781-10.300781v-62.648438c0-5.691406 4.613281-10.300781 10.300781-10.300781h437.285157c5.6875 0 10.300781 4.609375 10.300781 10.300781v62.648438c0 5.6875-4.613281 10.300781-10.300781 10.300781zm0 0" fill="#82cd64"/><path d="m432.910156 78.050781v83.25h14.675782c5.6875 0 10.300781-4.613281 10.300781-10.300781v-62.648438c0-5.691406-4.613281-10.300781-10.300781-10.300781zm0 0" fill="#5db33a"/><path d="m176.910156 78.050781h104.066406v83.25h-104.066406zm0 0" fill="#ffe046"/><g fill="#ffd508"><path d="m258.082031 78.050781h22.894531v83.25h-22.894531zm0 0"/><path d="m200.722656 58.71875c-.875 0-1.769531-.148438-2.640625-.464844l-21.613281-7.859375h-9.046875c-4.265625 0-7.726563-3.460937-7.726563-7.726562 0-4.269531 3.460938-7.726563 7.726563-7.726563h10.40625c.902344 0 1.792969.15625 2.640625.464844l22.894531 8.324219c4.007813 1.460937 6.078125 5.890625 4.621094 9.902343-1.140625 3.136719-4.105469 5.085938-7.261719 5.085938zm0 0"/><path d="m257.164062 58.71875c-3.15625 0-6.121093-1.949219-7.261718-5.085938-1.460938-4.011718.609375-8.445312 4.621094-9.902343l22.890624-8.324219c.847657-.308594 1.742188-.464844 2.640626-.464844h10.40625c4.269531 0 7.726562 3.457032 7.726562 7.722656 0 4.269532-3.457031 7.726563-7.726562 7.726563h-9.042969l-21.617188 7.863281c-.871093.316406-1.761719.464844-2.636719.464844zm0 0"/></g><path d="m260.164062 78.050781h-62.441406v-47.871093c0-8.046876 6.523438-14.570313 14.570313-14.570313h33.300781c8.046875 0 14.566406 6.523437 14.566406 14.570313v47.871093zm0 0" fill="#ffe046"/><path d="m245.59375 15.609375h-15.609375c8.042969 0 14.566406 6.523437 14.566406 14.570313v47.871093h15.609375v-47.871093c.003906-8.046876-6.519531-14.570313-14.566406-14.570313zm0 0" fill="#ffd508"/></svg>